<mxfile host="Electron" modified="2024-05-05T12:48:37.386Z" agent="Mozilla/5.0 (Windows NT 10.0; Win64; x64) AppleWebKit/537.36 (KHTML, like Gecko) draw.io/23.1.5 Chrome/120.0.6099.109 Electron/28.1.0 Safari/537.36" etag="LwVH8utU5cR1k0q08TBp" version="23.1.5" type="device" pages="2">
  <diagram id="wZeKGHit6dFYABQ05CAL" name="Class">
    <mxGraphModel dx="1050" dy="621" grid="1" gridSize="10" guides="1" tooltips="1" connect="1" arrows="1" fold="1" page="1" pageScale="1" pageWidth="1169" pageHeight="827" math="0" shadow="0">
      <root>
        <mxCell id="0" />
        <mxCell id="1" parent="0" />
        <mxCell id="SEoUSyoVG0V_tfhpsUfe-1" value="QuanTriHeThong" style="swimlane;fontStyle=1;align=center;verticalAlign=top;childLayout=stackLayout;horizontal=1;startSize=20;horizontalStack=0;resizeParent=1;resizeParentMax=0;resizeLast=0;collapsible=1;marginBottom=0;whiteSpace=wrap;html=1;fillColor=#d5e8d4;strokeColor=#000000;fontSize=8;" parent="1" vertex="1">
          <mxGeometry x="20" y="400" width="120" height="80" as="geometry" />
        </mxCell>
        <mxCell id="SEoUSyoVG0V_tfhpsUfe-2" value="&lt;u&gt;ID - TaiKhoanQuanTriHeThong&lt;/u&gt;" style="text;strokeColor=none;fillColor=none;align=left;verticalAlign=top;spacingLeft=4;spacingRight=4;overflow=hidden;rotatable=0;points=[[0,0.5],[1,0.5]];portConstraint=eastwest;whiteSpace=wrap;html=1;fontSize=8;" parent="SEoUSyoVG0V_tfhpsUfe-1" vertex="1">
          <mxGeometry y="20" width="120" height="26" as="geometry" />
        </mxCell>
        <mxCell id="SEoUSyoVG0V_tfhpsUfe-3" value="" style="line;strokeWidth=1;fillColor=none;align=left;verticalAlign=middle;spacingTop=-1;spacingLeft=3;spacingRight=3;rotatable=0;labelPosition=right;points=[];portConstraint=eastwest;strokeColor=inherit;fontSize=8;" parent="SEoUSyoVG0V_tfhpsUfe-1" vertex="1">
          <mxGeometry y="46" width="120" height="8" as="geometry" />
        </mxCell>
        <mxCell id="SEoUSyoVG0V_tfhpsUfe-4" value="CapTaiKhoanQuanTriVien()" style="text;strokeColor=none;fillColor=none;align=left;verticalAlign=top;spacingLeft=4;spacingRight=4;overflow=hidden;rotatable=0;points=[[0,0.5],[1,0.5]];portConstraint=eastwest;whiteSpace=wrap;html=1;fontSize=8;" parent="SEoUSyoVG0V_tfhpsUfe-1" vertex="1">
          <mxGeometry y="54" width="120" height="26" as="geometry" />
        </mxCell>
        <mxCell id="SEoUSyoVG0V_tfhpsUfe-5" value="TaiKhoan" style="swimlane;fontStyle=1;align=center;verticalAlign=top;childLayout=stackLayout;horizontal=1;startSize=20;horizontalStack=0;resizeParent=1;resizeParentMax=0;resizeLast=0;collapsible=1;marginBottom=0;whiteSpace=wrap;html=1;fillColor=#d5e8d4;strokeColor=#000000;fontSize=8;" parent="1" vertex="1">
          <mxGeometry x="20" y="230" width="120" height="80" as="geometry" />
        </mxCell>
        <mxCell id="SEoUSyoVG0V_tfhpsUfe-6" value="&lt;u style=&quot;font-size: 8px;&quot;&gt;TenTaiKhoan&lt;/u&gt;&lt;br style=&quot;font-size: 8px;&quot;&gt;&lt;br&gt;MatKhau" style="text;strokeColor=none;fillColor=none;align=left;verticalAlign=top;spacingLeft=4;spacingRight=4;overflow=hidden;rotatable=0;points=[[0,0.5],[1,0.5]];portConstraint=eastwest;whiteSpace=wrap;html=1;fontSize=8;horizontal=1;" parent="SEoUSyoVG0V_tfhpsUfe-5" vertex="1">
          <mxGeometry y="20" width="120" height="40" as="geometry" />
        </mxCell>
        <mxCell id="SEoUSyoVG0V_tfhpsUfe-7" value="" style="line;strokeWidth=1;fillColor=none;align=left;verticalAlign=middle;spacingTop=-1;spacingLeft=3;spacingRight=3;rotatable=0;labelPosition=right;points=[];portConstraint=eastwest;strokeColor=inherit;fontSize=8;" parent="SEoUSyoVG0V_tfhpsUfe-5" vertex="1">
          <mxGeometry y="60" width="120" height="8" as="geometry" />
        </mxCell>
        <mxCell id="SEoUSyoVG0V_tfhpsUfe-8" value="&amp;nbsp;" style="text;strokeColor=none;fillColor=none;align=left;verticalAlign=top;spacingLeft=4;spacingRight=4;overflow=hidden;rotatable=0;points=[[0,0.5],[1,0.5]];portConstraint=eastwest;whiteSpace=wrap;html=1;fontSize=8;" parent="SEoUSyoVG0V_tfhpsUfe-5" vertex="1">
          <mxGeometry y="68" width="120" height="12" as="geometry" />
        </mxCell>
        <mxCell id="SEoUSyoVG0V_tfhpsUfe-9" value="NguoiDung" style="swimlane;fontStyle=1;align=center;verticalAlign=top;childLayout=stackLayout;horizontal=1;startSize=20;horizontalStack=0;resizeParent=1;resizeParentMax=0;resizeLast=0;collapsible=1;marginBottom=0;whiteSpace=wrap;html=1;fillColor=#d5e8d4;strokeColor=#000000;fontSize=8;" parent="1" vertex="1">
          <mxGeometry x="245" y="60" width="120" height="220" as="geometry" />
        </mxCell>
        <mxCell id="SEoUSyoVG0V_tfhpsUfe-10" value="&lt;u&gt;MaNguoiDung&lt;/u&gt;&lt;br&gt;&lt;br&gt;Ho&lt;br&gt;&lt;br&gt;Ten&lt;div&gt;&lt;br&gt;&lt;/div&gt;&lt;div&gt;CCCD&lt;/div&gt;&lt;div&gt;&lt;br&gt;&lt;/div&gt;&lt;div&gt;SoDienThoai&lt;/div&gt;&lt;div&gt;&lt;br&gt;&lt;/div&gt;&lt;div&gt;DiaChi&lt;/div&gt;&lt;div&gt;&lt;br&gt;&lt;/div&gt;&lt;div&gt;Anh&lt;/div&gt;&lt;div&gt;&lt;br&gt;&lt;/div&gt;&lt;div&gt;TaiKhoan&lt;/div&gt;" style="text;strokeColor=none;fillColor=none;align=left;verticalAlign=top;spacingLeft=4;spacingRight=4;overflow=hidden;rotatable=0;points=[[0,0.5],[1,0.5]];portConstraint=eastwest;whiteSpace=wrap;html=1;fontSize=8;" parent="SEoUSyoVG0V_tfhpsUfe-9" vertex="1">
          <mxGeometry y="20" width="120" height="150" as="geometry" />
        </mxCell>
        <mxCell id="SEoUSyoVG0V_tfhpsUfe-11" value="" style="line;strokeWidth=1;fillColor=none;align=left;verticalAlign=middle;spacingTop=-1;spacingLeft=3;spacingRight=3;rotatable=0;labelPosition=right;points=[];portConstraint=eastwest;strokeColor=inherit;fontSize=8;" parent="SEoUSyoVG0V_tfhpsUfe-9" vertex="1">
          <mxGeometry y="170" width="120" height="8" as="geometry" />
        </mxCell>
        <mxCell id="SEoUSyoVG0V_tfhpsUfe-12" value="DangNhap()&lt;br&gt;&lt;br&gt;DoiMatKhau()&lt;br&gt;&lt;div&gt;&lt;br/&gt;&lt;/div&gt;" style="text;strokeColor=none;fillColor=none;align=left;verticalAlign=top;spacingLeft=4;spacingRight=4;overflow=hidden;rotatable=0;points=[[0,0.5],[1,0.5]];portConstraint=eastwest;whiteSpace=wrap;html=1;fontSize=8;" parent="SEoUSyoVG0V_tfhpsUfe-9" vertex="1">
          <mxGeometry y="178" width="120" height="42" as="geometry" />
        </mxCell>
        <mxCell id="SEoUSyoVG0V_tfhpsUfe-13" value="QuanTriVien" style="swimlane;fontStyle=1;align=center;verticalAlign=top;childLayout=stackLayout;horizontal=1;startSize=20;horizontalStack=0;resizeParent=1;resizeParentMax=0;resizeLast=0;collapsible=1;marginBottom=0;whiteSpace=wrap;html=1;fillColor=#d5e8d4;strokeColor=#000000;fontSize=8;" parent="1" vertex="1">
          <mxGeometry x="240" y="344" width="130" height="320" as="geometry" />
        </mxCell>
        <mxCell id="SEoUSyoVG0V_tfhpsUfe-14" value="&lt;u&gt;MaNguoiDung (MaQuanTriVien)&lt;/u&gt;" style="text;strokeColor=none;fillColor=none;align=left;verticalAlign=top;spacingLeft=4;spacingRight=4;overflow=hidden;rotatable=0;points=[[0,0.5],[1,0.5]];portConstraint=eastwest;whiteSpace=wrap;html=1;fontSize=8;" parent="SEoUSyoVG0V_tfhpsUfe-13" vertex="1">
          <mxGeometry y="20" width="130" height="20" as="geometry" />
        </mxCell>
        <mxCell id="SEoUSyoVG0V_tfhpsUfe-15" value="" style="line;strokeWidth=1;fillColor=none;align=left;verticalAlign=middle;spacingTop=-1;spacingLeft=3;spacingRight=3;rotatable=0;labelPosition=right;points=[];portConstraint=eastwest;strokeColor=inherit;fontSize=8;" parent="SEoUSyoVG0V_tfhpsUfe-13" vertex="1">
          <mxGeometry y="40" width="130" height="8" as="geometry" />
        </mxCell>
        <mxCell id="SEoUSyoVG0V_tfhpsUfe-16" value="TaoThongTinNhanVien()&lt;br style=&quot;border-color: var(--border-color);&quot;&gt;&lt;br style=&quot;border-color: var(--border-color);&quot;&gt;SuaThongTinNhanVien()&lt;br style=&quot;border-color: var(--border-color);&quot;&gt;&lt;div style=&quot;border-color: var(--border-color);&quot;&gt;&lt;br style=&quot;border-color: var(--border-color);&quot;&gt;&lt;/div&gt;&lt;div style=&quot;border-color: var(--border-color);&quot;&gt;XoaThongTinNhanVien()&lt;/div&gt;&lt;div style=&quot;border-color: var(--border-color);&quot;&gt;&lt;br&gt;&lt;/div&gt;&lt;div style=&quot;border-color: var(--border-color);&quot;&gt;XemDonHang()&lt;br style=&quot;border-color: var(--border-color);&quot;&gt;&lt;div style=&quot;border-color: var(--border-color);&quot;&gt;&lt;br style=&quot;border-color: var(--border-color);&quot;&gt;&lt;/div&gt;&lt;div style=&quot;border-color: var(--border-color);&quot;&gt;ChonMocThoiGian()&lt;/div&gt;&lt;/div&gt;&lt;div style=&quot;border-color: var(--border-color);&quot;&gt;&lt;br&gt;&lt;/div&gt;&lt;div style=&quot;border-color: var(--border-color);&quot;&gt;TaoMon()&lt;br style=&quot;border-color: var(--border-color);&quot;&gt;&lt;br style=&quot;border-color: var(--border-color);&quot;&gt;SuaMon()&lt;br style=&quot;border-color: var(--border-color);&quot;&gt;&lt;br style=&quot;border-color: var(--border-color);&quot;&gt;XoaMon()&lt;br style=&quot;border-color: var(--border-color);&quot;&gt;&lt;br style=&quot;border-color: var(--border-color);&quot;&gt;TimMon()&lt;br style=&quot;border-color: var(--border-color);&quot;&gt;&lt;br style=&quot;border-color: var(--border-color);&quot;&gt;XemMon()&lt;br&gt;&lt;/div&gt;&lt;div style=&quot;border-color: var(--border-color);&quot;&gt;&lt;br&gt;&lt;/div&gt;&lt;div style=&quot;border-color: var(--border-color);&quot;&gt;TaoBan()&lt;br style=&quot;border-color: var(--border-color);&quot;&gt;&lt;br style=&quot;border-color: var(--border-color);&quot;&gt;SuaBan()&lt;br style=&quot;border-color: var(--border-color);&quot;&gt;&lt;br style=&quot;border-color: var(--border-color);&quot;&gt;XoaBan()&lt;br style=&quot;border-color: var(--border-color);&quot;&gt;&lt;br style=&quot;border-color: var(--border-color);&quot;&gt;TaoMaQR()&lt;br style=&quot;border-color: var(--border-color);&quot;&gt;&lt;br style=&quot;border-color: var(--border-color);&quot;&gt;XemThongTinBan()&lt;br&gt;&lt;/div&gt;" style="text;strokeColor=none;fillColor=none;align=left;verticalAlign=top;spacingLeft=4;spacingRight=4;overflow=hidden;rotatable=0;points=[[0,0.5],[1,0.5]];portConstraint=eastwest;whiteSpace=wrap;html=1;fontSize=8;" parent="SEoUSyoVG0V_tfhpsUfe-13" vertex="1">
          <mxGeometry y="48" width="130" height="272" as="geometry" />
        </mxCell>
        <mxCell id="SEoUSyoVG0V_tfhpsUfe-17" value="NhanVien" style="swimlane;fontStyle=1;align=center;verticalAlign=top;childLayout=stackLayout;horizontal=1;startSize=20;horizontalStack=0;resizeParent=1;resizeParentMax=0;resizeLast=0;collapsible=1;marginBottom=0;whiteSpace=wrap;html=1;fillColor=#d5e8d4;strokeColor=#000000;fontSize=8;" parent="1" vertex="1">
          <mxGeometry x="30" y="70" width="120" height="110" as="geometry" />
        </mxCell>
        <mxCell id="SEoUSyoVG0V_tfhpsUfe-18" value="&lt;u&gt;MaNguoiDung (MaNhanVien)&lt;/u&gt;&lt;br&gt;&lt;br&gt;Luong" style="text;strokeColor=none;fillColor=none;align=left;verticalAlign=top;spacingLeft=4;spacingRight=4;overflow=hidden;rotatable=0;points=[[0,0.5],[1,0.5]];portConstraint=eastwest;whiteSpace=wrap;html=1;fontSize=8;" parent="SEoUSyoVG0V_tfhpsUfe-17" vertex="1">
          <mxGeometry y="20" width="120" height="40" as="geometry" />
        </mxCell>
        <mxCell id="SEoUSyoVG0V_tfhpsUfe-19" value="" style="line;strokeWidth=1;fillColor=none;align=left;verticalAlign=middle;spacingTop=-1;spacingLeft=3;spacingRight=3;rotatable=0;labelPosition=right;points=[];portConstraint=eastwest;strokeColor=inherit;fontSize=8;" parent="SEoUSyoVG0V_tfhpsUfe-17" vertex="1">
          <mxGeometry y="60" width="120" height="8" as="geometry" />
        </mxCell>
        <mxCell id="SEoUSyoVG0V_tfhpsUfe-20" value="ThanhToanDonDatMon()&lt;br&gt;&lt;br&gt;InHoaDon()" style="text;strokeColor=none;fillColor=none;align=left;verticalAlign=top;spacingLeft=4;spacingRight=4;overflow=hidden;rotatable=0;points=[[0,0.5],[1,0.5]];portConstraint=eastwest;whiteSpace=wrap;html=1;fontSize=8;" parent="SEoUSyoVG0V_tfhpsUfe-17" vertex="1">
          <mxGeometry y="68" width="120" height="42" as="geometry" />
        </mxCell>
        <mxCell id="SEoUSyoVG0V_tfhpsUfe-21" value="KhachHang" style="swimlane;fontStyle=1;align=center;verticalAlign=top;childLayout=stackLayout;horizontal=1;startSize=20;horizontalStack=0;resizeParent=1;resizeParentMax=0;resizeLast=0;collapsible=1;marginBottom=0;whiteSpace=wrap;html=1;fillColor=#d5e8d4;strokeColor=#000000;fontSize=8;" parent="1" vertex="1">
          <mxGeometry x="470" y="60" width="111.63" height="110" as="geometry" />
        </mxCell>
        <mxCell id="SEoUSyoVG0V_tfhpsUfe-22" value="&lt;u&gt;MaKhachHang&lt;/u&gt;&lt;br&gt;&lt;div&gt;&lt;br/&gt;&lt;/div&gt;" style="text;strokeColor=none;fillColor=none;align=left;verticalAlign=top;spacingLeft=4;spacingRight=4;overflow=hidden;rotatable=0;points=[[0,0.5],[1,0.5]];portConstraint=eastwest;whiteSpace=wrap;html=1;fontSize=8;" parent="SEoUSyoVG0V_tfhpsUfe-21" vertex="1">
          <mxGeometry y="20" width="111.63" height="20" as="geometry" />
        </mxCell>
        <mxCell id="SEoUSyoVG0V_tfhpsUfe-23" value="" style="line;strokeWidth=1;fillColor=none;align=left;verticalAlign=middle;spacingTop=-1;spacingLeft=3;spacingRight=3;rotatable=0;labelPosition=right;points=[];portConstraint=eastwest;strokeColor=inherit;fontSize=8;" parent="SEoUSyoVG0V_tfhpsUfe-21" vertex="1">
          <mxGeometry y="40" width="111.63" height="8" as="geometry" />
        </mxCell>
        <mxCell id="SEoUSyoVG0V_tfhpsUfe-24" value="TaoDonDatMon()&lt;br&gt;&lt;br&gt;SuaDonDatMon()&lt;br&gt;&lt;br&gt;XemDonDatMon()" style="text;strokeColor=none;fillColor=none;align=left;verticalAlign=top;spacingLeft=4;spacingRight=4;overflow=hidden;rotatable=0;points=[[0,0.5],[1,0.5]];portConstraint=eastwest;whiteSpace=wrap;html=1;fontSize=8;" parent="SEoUSyoVG0V_tfhpsUfe-21" vertex="1">
          <mxGeometry y="48" width="111.63" height="62" as="geometry" />
        </mxCell>
        <mxCell id="SEoUSyoVG0V_tfhpsUfe-25" value="Mon" style="swimlane;fontStyle=1;align=center;verticalAlign=top;childLayout=stackLayout;horizontal=1;startSize=20;horizontalStack=0;resizeParent=1;resizeParentMax=0;resizeLast=0;collapsible=1;marginBottom=0;whiteSpace=wrap;html=1;fillColor=#d5e8d4;strokeColor=#000000;fontSize=8;" parent="1" vertex="1">
          <mxGeometry x="830" y="280" width="111.63" height="190" as="geometry" />
        </mxCell>
        <mxCell id="SEoUSyoVG0V_tfhpsUfe-26" value="&lt;u&gt;MaMon&lt;/u&gt;&lt;br&gt;&lt;br&gt;LoaiMon&lt;br&gt;&lt;br&gt;DonGia" style="text;strokeColor=none;fillColor=none;align=left;verticalAlign=top;spacingLeft=4;spacingRight=4;overflow=hidden;rotatable=0;points=[[0,0.5],[1,0.5]];portConstraint=eastwest;whiteSpace=wrap;html=1;fontSize=8;" parent="SEoUSyoVG0V_tfhpsUfe-25" vertex="1">
          <mxGeometry y="20" width="111.63" height="60" as="geometry" />
        </mxCell>
        <mxCell id="SEoUSyoVG0V_tfhpsUfe-27" value="" style="line;strokeWidth=1;fillColor=none;align=left;verticalAlign=middle;spacingTop=-1;spacingLeft=3;spacingRight=3;rotatable=0;labelPosition=right;points=[];portConstraint=eastwest;strokeColor=inherit;fontSize=8;" parent="SEoUSyoVG0V_tfhpsUfe-25" vertex="1">
          <mxGeometry y="80" width="111.63" height="8" as="geometry" />
        </mxCell>
        <mxCell id="SEoUSyoVG0V_tfhpsUfe-28" value="TaoMon()&lt;br&gt;&lt;br&gt;SuaMon()&lt;br&gt;&lt;br&gt;XoaMon()&lt;br&gt;&lt;br&gt;TimMon()&lt;br&gt;&lt;br&gt;XemMon()" style="text;strokeColor=none;fillColor=none;align=left;verticalAlign=top;spacingLeft=4;spacingRight=4;overflow=hidden;rotatable=0;points=[[0,0.5],[1,0.5]];portConstraint=eastwest;whiteSpace=wrap;html=1;fontSize=8;" parent="SEoUSyoVG0V_tfhpsUfe-25" vertex="1">
          <mxGeometry y="88" width="111.63" height="102" as="geometry" />
        </mxCell>
        <mxCell id="SEoUSyoVG0V_tfhpsUfe-29" value="HoaDon" style="swimlane;fontStyle=1;align=center;verticalAlign=top;childLayout=stackLayout;horizontal=1;startSize=20;horizontalStack=0;resizeParent=1;resizeParentMax=0;resizeLast=0;collapsible=1;marginBottom=0;whiteSpace=wrap;html=1;fillColor=#d5e8d4;strokeColor=#000000;fontSize=8;" parent="1" vertex="1">
          <mxGeometry x="470" y="242" width="111.63" height="344" as="geometry" />
        </mxCell>
        <mxCell id="SEoUSyoVG0V_tfhpsUfe-30" value="&lt;u&gt;MaHoaDon&lt;/u&gt;&lt;br&gt;&lt;br&gt;&lt;div style=&quot;border-color: var(--border-color);&quot;&gt;TenQuan&lt;/div&gt;&lt;div style=&quot;border-color: var(--border-color);&quot;&gt;&lt;br style=&quot;border-color: var(--border-color);&quot;&gt;&lt;/div&gt;&lt;div style=&quot;border-color: var(--border-color);&quot;&gt;DiaChiQuan&lt;/div&gt;&lt;br&gt;Ngay&lt;br&gt;&lt;br&gt;GioVao&lt;br&gt;&lt;br&gt;GioRa&lt;br&gt;&lt;br&gt;MaBan&lt;br&gt;&lt;br&gt;MaKhach&lt;br&gt;&lt;br&gt;MaNhanVien&lt;br&gt;&lt;br&gt;MaMon&lt;br&gt;&lt;br&gt;SoLuong&lt;br&gt;&lt;div&gt;&lt;br&gt;&lt;/div&gt;&lt;div&gt;ThanhTien&lt;/div&gt;&lt;div&gt;&lt;br&gt;&lt;/div&gt;&lt;div&gt;VAT&lt;/div&gt;&lt;div&gt;&lt;br&gt;&lt;/div&gt;&lt;div&gt;TongThanhTien&lt;/div&gt;&lt;div&gt;&lt;br&gt;&lt;/div&gt;&lt;div&gt;TienKhach&lt;/div&gt;&lt;div&gt;&lt;br&gt;&lt;/div&gt;&lt;div&gt;TienThua&lt;/div&gt;" style="text;strokeColor=none;fillColor=none;align=left;verticalAlign=top;spacingLeft=4;spacingRight=4;overflow=hidden;rotatable=0;points=[[0,0.5],[1,0.5]];portConstraint=eastwest;whiteSpace=wrap;html=1;fontSize=8;" parent="SEoUSyoVG0V_tfhpsUfe-29" vertex="1">
          <mxGeometry y="20" width="111.63" height="290" as="geometry" />
        </mxCell>
        <mxCell id="SEoUSyoVG0V_tfhpsUfe-31" value="" style="line;strokeWidth=1;fillColor=none;align=left;verticalAlign=middle;spacingTop=-1;spacingLeft=3;spacingRight=3;rotatable=0;labelPosition=right;points=[];portConstraint=eastwest;strokeColor=inherit;fontSize=8;" parent="SEoUSyoVG0V_tfhpsUfe-29" vertex="1">
          <mxGeometry y="310" width="111.63" height="8" as="geometry" />
        </mxCell>
        <mxCell id="SEoUSyoVG0V_tfhpsUfe-32" value="InHoaDon()" style="text;strokeColor=none;fillColor=none;align=left;verticalAlign=top;spacingLeft=4;spacingRight=4;overflow=hidden;rotatable=0;points=[[0,0.5],[1,0.5]];portConstraint=eastwest;whiteSpace=wrap;html=1;fontSize=8;" parent="SEoUSyoVG0V_tfhpsUfe-29" vertex="1">
          <mxGeometry y="318" width="111.63" height="26" as="geometry" />
        </mxCell>
        <mxCell id="SEoUSyoVG0V_tfhpsUfe-33" value="Ban" style="swimlane;fontStyle=1;align=center;verticalAlign=top;childLayout=stackLayout;horizontal=1;startSize=20;horizontalStack=0;resizeParent=1;resizeParentMax=0;resizeLast=0;collapsible=1;marginBottom=0;whiteSpace=wrap;html=1;fillColor=#d5e8d4;strokeColor=#000000;fontSize=8;" parent="1" vertex="1">
          <mxGeometry x="664" y="160" width="111.63" height="210" as="geometry">
            <mxRectangle x="530" width="60" height="20" as="alternateBounds" />
          </mxGeometry>
        </mxCell>
        <mxCell id="SEoUSyoVG0V_tfhpsUfe-34" value="&lt;u&gt;MaBan&lt;br&gt;&lt;/u&gt;&lt;div&gt;&lt;br&gt;&lt;/div&gt;&lt;div&gt;ViTri&lt;/div&gt;&lt;div&gt;&lt;br&gt;&lt;/div&gt;&lt;div&gt;TrangThai&lt;/div&gt;" style="text;strokeColor=none;fillColor=none;align=left;verticalAlign=top;spacingLeft=4;spacingRight=4;overflow=hidden;rotatable=0;points=[[0,0.5],[1,0.5]];portConstraint=eastwest;whiteSpace=wrap;html=1;fontSize=8;" parent="SEoUSyoVG0V_tfhpsUfe-33" vertex="1">
          <mxGeometry y="20" width="111.63" height="60" as="geometry" />
        </mxCell>
        <mxCell id="SEoUSyoVG0V_tfhpsUfe-35" value="" style="line;strokeWidth=1;fillColor=none;align=left;verticalAlign=middle;spacingTop=-1;spacingLeft=3;spacingRight=3;rotatable=0;labelPosition=right;points=[];portConstraint=eastwest;strokeColor=inherit;fontSize=8;" parent="SEoUSyoVG0V_tfhpsUfe-33" vertex="1">
          <mxGeometry y="80" width="111.63" height="8" as="geometry" />
        </mxCell>
        <mxCell id="SEoUSyoVG0V_tfhpsUfe-36" value="HienThiTrangThai()&lt;br&gt;&lt;br&gt;TaoBan()&lt;br&gt;&lt;br&gt;SuaBan()&lt;br&gt;&lt;br&gt;XoaBan()&lt;br&gt;&lt;br&gt;TaoMaQR()&lt;br&gt;&lt;br&gt;XemThongTinBan()" style="text;strokeColor=none;fillColor=none;align=left;verticalAlign=top;spacingLeft=4;spacingRight=4;overflow=hidden;rotatable=0;points=[[0,0.5],[1,0.5]];portConstraint=eastwest;whiteSpace=wrap;html=1;fontSize=8;" parent="SEoUSyoVG0V_tfhpsUfe-33" vertex="1">
          <mxGeometry y="88" width="111.63" height="122" as="geometry" />
        </mxCell>
        <mxCell id="SEoUSyoVG0V_tfhpsUfe-37" value="DonHang" style="swimlane;fontStyle=1;align=center;verticalAlign=top;childLayout=stackLayout;horizontal=1;startSize=20;horizontalStack=0;resizeParent=1;resizeParentMax=0;resizeLast=0;collapsible=1;marginBottom=0;whiteSpace=wrap;html=1;fillColor=#d5e8d4;strokeColor=#000000;fontSize=8;" parent="1" vertex="1">
          <mxGeometry x="660" y="444" width="111.63" height="220" as="geometry" />
        </mxCell>
        <mxCell id="SEoUSyoVG0V_tfhpsUfe-38" value="&lt;u&gt;MaDonHang&lt;/u&gt;&lt;br&gt;&lt;br&gt;MaHoaDon&lt;br&gt;&lt;br&gt;MaBan&lt;br&gt;&lt;br&gt;MaKhachHang&lt;br&gt;&lt;br&gt;MaNhanVien&lt;br&gt;&lt;br&gt;MaMon&lt;br style=&quot;border-color: var(--border-color);&quot;&gt;&lt;br&gt;SoLuong&lt;br&gt;&lt;br&gt;DoanhThu&lt;div&gt;&lt;br/&gt;&lt;/div&gt;" style="text;strokeColor=none;fillColor=none;align=left;verticalAlign=top;spacingLeft=4;spacingRight=4;overflow=hidden;rotatable=0;points=[[0,0.5],[1,0.5]];portConstraint=eastwest;whiteSpace=wrap;html=1;fontSize=8;" parent="SEoUSyoVG0V_tfhpsUfe-37" vertex="1">
          <mxGeometry y="20" width="111.63" height="150" as="geometry" />
        </mxCell>
        <mxCell id="SEoUSyoVG0V_tfhpsUfe-39" value="" style="line;strokeWidth=1;fillColor=none;align=left;verticalAlign=middle;spacingTop=-1;spacingLeft=3;spacingRight=3;rotatable=0;labelPosition=right;points=[];portConstraint=eastwest;strokeColor=inherit;fontSize=8;" parent="SEoUSyoVG0V_tfhpsUfe-37" vertex="1">
          <mxGeometry y="170" width="111.63" height="8" as="geometry" />
        </mxCell>
        <mxCell id="SEoUSyoVG0V_tfhpsUfe-40" value="XemDonHang()&lt;br&gt;&lt;div&gt;&lt;br&gt;&lt;/div&gt;&lt;div&gt;ChonMocThoiGian()&lt;/div&gt;" style="text;strokeColor=none;fillColor=none;align=left;verticalAlign=top;spacingLeft=4;spacingRight=4;overflow=hidden;rotatable=0;points=[[0,0.5],[1,0.5]];portConstraint=eastwest;whiteSpace=wrap;html=1;fontSize=8;" parent="SEoUSyoVG0V_tfhpsUfe-37" vertex="1">
          <mxGeometry y="178" width="111.63" height="42" as="geometry" />
        </mxCell>
        <mxCell id="SEoUSyoVG0V_tfhpsUfe-41" value="" style="endArrow=block;endSize=16;endFill=0;html=1;rounded=0;exitX=0.5;exitY=0;exitDx=0;exitDy=0;" parent="1" source="SEoUSyoVG0V_tfhpsUfe-13" target="SEoUSyoVG0V_tfhpsUfe-12" edge="1">
          <mxGeometry width="160" relative="1" as="geometry">
            <mxPoint x="550" y="530" as="sourcePoint" />
            <mxPoint x="710" y="530" as="targetPoint" />
          </mxGeometry>
        </mxCell>
        <mxCell id="SEoUSyoVG0V_tfhpsUfe-42" value="" style="endArrow=block;endSize=16;endFill=0;html=1;rounded=0;exitX=1;exitY=0.5;exitDx=0;exitDy=0;entryX=-0.007;entryY=0.204;entryDx=0;entryDy=0;entryPerimeter=0;" parent="1" source="SEoUSyoVG0V_tfhpsUfe-18" target="SEoUSyoVG0V_tfhpsUfe-10" edge="1">
          <mxGeometry width="160" relative="1" as="geometry">
            <mxPoint x="315" y="354" as="sourcePoint" />
            <mxPoint x="315" y="290" as="targetPoint" />
          </mxGeometry>
        </mxCell>
        <mxCell id="SEoUSyoVG0V_tfhpsUfe-43" value="" style="group" parent="1" connectable="0" vertex="1">
          <mxGeometry x="130" y="242" width="120" height="38" as="geometry" />
        </mxCell>
        <mxCell id="SEoUSyoVG0V_tfhpsUfe-44" value="SoHuu" style="text;html=1;align=center;verticalAlign=middle;resizable=0;points=[];autosize=1;strokeColor=none;fillColor=none;fontSize=9;" parent="SEoUSyoVG0V_tfhpsUfe-43" vertex="1">
          <mxGeometry x="40" width="50" height="20" as="geometry" />
        </mxCell>
        <mxCell id="SEoUSyoVG0V_tfhpsUfe-45" value="1" style="text;html=1;align=center;verticalAlign=middle;resizable=0;points=[];autosize=1;strokeColor=none;fillColor=none;fontSize=7;" parent="SEoUSyoVG0V_tfhpsUfe-43" vertex="1">
          <mxGeometry y="18" width="30" height="20" as="geometry" />
        </mxCell>
        <mxCell id="SEoUSyoVG0V_tfhpsUfe-46" value="1" style="text;html=1;align=center;verticalAlign=middle;resizable=0;points=[];autosize=1;strokeColor=none;fillColor=none;fontSize=7;" parent="SEoUSyoVG0V_tfhpsUfe-43" vertex="1">
          <mxGeometry x="90" y="18" width="30" height="20" as="geometry" />
        </mxCell>
        <mxCell id="SEoUSyoVG0V_tfhpsUfe-47" value="" style="endArrow=none;html=1;rounded=0;entryX=0.5;entryY=0;entryDx=0;entryDy=0;exitX=0.494;exitY=1.004;exitDx=0;exitDy=0;exitPerimeter=0;" parent="1" source="SEoUSyoVG0V_tfhpsUfe-24" target="SEoUSyoVG0V_tfhpsUfe-29" edge="1">
          <mxGeometry width="50" height="50" relative="1" as="geometry">
            <mxPoint x="410" y="210" as="sourcePoint" />
            <mxPoint x="500" y="210" as="targetPoint" />
          </mxGeometry>
        </mxCell>
        <mxCell id="SEoUSyoVG0V_tfhpsUfe-48" value="0..*" style="text;html=1;align=center;verticalAlign=middle;resizable=0;points=[];autosize=1;strokeColor=none;fillColor=none;fontSize=7;" parent="1" vertex="1">
          <mxGeometry x="500.82" y="222" width="30" height="20" as="geometry" />
        </mxCell>
        <mxCell id="SEoUSyoVG0V_tfhpsUfe-49" value="1" style="text;html=1;align=center;verticalAlign=middle;resizable=0;points=[];autosize=1;strokeColor=none;fillColor=none;fontSize=7;" parent="1" vertex="1">
          <mxGeometry x="500" y="170" width="30" height="20" as="geometry" />
        </mxCell>
        <mxCell id="SEoUSyoVG0V_tfhpsUfe-50" value="" style="endArrow=none;html=1;rounded=0;entryX=0.5;entryY=0;entryDx=0;entryDy=0;exitX=0.508;exitY=1.029;exitDx=0;exitDy=0;exitPerimeter=0;" parent="1" source="SEoUSyoVG0V_tfhpsUfe-8" target="SEoUSyoVG0V_tfhpsUfe-1" edge="1">
          <mxGeometry width="50" height="50" relative="1" as="geometry">
            <mxPoint x="170" y="338" as="sourcePoint" />
            <mxPoint x="220" y="288" as="targetPoint" />
          </mxGeometry>
        </mxCell>
        <mxCell id="SEoUSyoVG0V_tfhpsUfe-51" value="0..*" style="text;html=1;align=center;verticalAlign=middle;resizable=0;points=[];autosize=1;strokeColor=none;fillColor=none;fontSize=7;" parent="1" vertex="1">
          <mxGeometry x="75" y="321" width="30" height="20" as="geometry" />
        </mxCell>
        <mxCell id="SEoUSyoVG0V_tfhpsUfe-52" value="1" style="text;html=1;align=center;verticalAlign=middle;resizable=0;points=[];autosize=1;strokeColor=none;fillColor=none;fontSize=7;" parent="1" vertex="1">
          <mxGeometry x="75" y="380" width="30" height="20" as="geometry" />
        </mxCell>
        <mxCell id="SEoUSyoVG0V_tfhpsUfe-53" value="Tao" style="text;html=1;align=center;verticalAlign=middle;resizable=0;points=[];autosize=1;strokeColor=none;fillColor=none;fontSize=9;" parent="1" vertex="1">
          <mxGeometry x="50" y="350" width="40" height="20" as="geometry" />
        </mxCell>
        <mxCell id="SEoUSyoVG0V_tfhpsUfe-54" value="" style="endArrow=none;html=1;rounded=0;entryX=0.001;entryY=0.528;entryDx=0;entryDy=0;entryPerimeter=0;exitX=0.332;exitY=0.006;exitDx=0;exitDy=0;exitPerimeter=0;" parent="1" source="SEoUSyoVG0V_tfhpsUfe-45" target="SEoUSyoVG0V_tfhpsUfe-12" edge="1">
          <mxGeometry width="50" height="50" relative="1" as="geometry">
            <mxPoint x="160" y="270" as="sourcePoint" />
            <mxPoint x="210" y="220" as="targetPoint" />
          </mxGeometry>
        </mxCell>
        <mxCell id="SEoUSyoVG0V_tfhpsUfe-55" value="ThanhToan" style="text;html=1;align=center;verticalAlign=middle;resizable=0;points=[];autosize=1;strokeColor=none;fillColor=none;fontSize=9;" parent="1" vertex="1">
          <mxGeometry x="520" y="190" width="70" height="20" as="geometry" />
        </mxCell>
        <mxCell id="SEoUSyoVG0V_tfhpsUfe-56" value="" style="endArrow=none;html=1;rounded=0;entryX=0.75;entryY=0;entryDx=0;entryDy=0;exitX=0.5;exitY=0;exitDx=0;exitDy=0;" parent="1" source="SEoUSyoVG0V_tfhpsUfe-33" target="SEoUSyoVG0V_tfhpsUfe-9" edge="1">
          <mxGeometry width="50" height="50" relative="1" as="geometry">
            <mxPoint x="515" y="180" as="sourcePoint" />
            <mxPoint x="516" y="252" as="targetPoint" />
            <Array as="points">
              <mxPoint x="720" y="40" />
              <mxPoint x="335" y="40" />
            </Array>
          </mxGeometry>
        </mxCell>
        <mxCell id="SEoUSyoVG0V_tfhpsUfe-57" value="1" style="text;html=1;align=center;verticalAlign=middle;resizable=0;points=[];autosize=1;strokeColor=none;fillColor=none;fontSize=7;" parent="1" vertex="1">
          <mxGeometry x="310" y="40" width="30" height="20" as="geometry" />
        </mxCell>
        <mxCell id="SEoUSyoVG0V_tfhpsUfe-58" value="0..*" style="text;html=1;align=center;verticalAlign=middle;resizable=0;points=[];autosize=1;strokeColor=none;fillColor=none;fontSize=7;" parent="1" vertex="1">
          <mxGeometry x="719.9999999999999" y="140" width="30" height="20" as="geometry" />
        </mxCell>
        <mxCell id="SEoUSyoVG0V_tfhpsUfe-59" value="QuanLyBan" style="text;html=1;align=center;verticalAlign=middle;resizable=0;points=[];autosize=1;strokeColor=none;fillColor=none;fontSize=8;" parent="1" vertex="1">
          <mxGeometry x="590" y="40" width="70" height="20" as="geometry" />
        </mxCell>
        <mxCell id="SEoUSyoVG0V_tfhpsUfe-60" value="" style="endArrow=none;html=1;rounded=0;entryX=0.25;entryY=0;entryDx=0;entryDy=0;exitX=0.5;exitY=0;exitDx=0;exitDy=0;" parent="1" source="SEoUSyoVG0V_tfhpsUfe-25" target="SEoUSyoVG0V_tfhpsUfe-9" edge="1">
          <mxGeometry width="50" height="50" relative="1" as="geometry">
            <mxPoint x="730" y="100" as="sourcePoint" />
            <mxPoint x="345" y="70" as="targetPoint" />
            <Array as="points">
              <mxPoint x="886" y="20" />
              <mxPoint x="275" y="20" />
            </Array>
          </mxGeometry>
        </mxCell>
        <mxCell id="SEoUSyoVG0V_tfhpsUfe-61" value="QuanLyMon" style="text;html=1;align=center;verticalAlign=middle;resizable=0;points=[];autosize=1;strokeColor=none;fillColor=none;fontSize=8;" parent="1" vertex="1">
          <mxGeometry x="790" width="70" height="20" as="geometry" />
        </mxCell>
        <mxCell id="SEoUSyoVG0V_tfhpsUfe-62" value="1" style="text;html=1;align=center;verticalAlign=middle;resizable=0;points=[];autosize=1;strokeColor=none;fillColor=none;fontSize=7;" parent="1" vertex="1">
          <mxGeometry x="245" y="40" width="30" height="20" as="geometry" />
        </mxCell>
        <mxCell id="SEoUSyoVG0V_tfhpsUfe-63" value="0..*" style="text;html=1;align=center;verticalAlign=middle;resizable=0;points=[];autosize=1;strokeColor=none;fillColor=none;fontSize=7;" parent="1" vertex="1">
          <mxGeometry x="860" y="260" width="30" height="20" as="geometry" />
        </mxCell>
        <mxCell id="SEoUSyoVG0V_tfhpsUfe-64" value="" style="endArrow=none;html=1;rounded=0;entryX=1;entryY=0.5;entryDx=0;entryDy=0;exitX=-0.006;exitY=0.106;exitDx=0;exitDy=0;exitPerimeter=0;" parent="1" source="SEoUSyoVG0V_tfhpsUfe-30" target="SEoUSyoVG0V_tfhpsUfe-10" edge="1">
          <mxGeometry width="50" height="50" relative="1" as="geometry">
            <mxPoint x="730" y="100" as="sourcePoint" />
            <mxPoint x="345" y="70" as="targetPoint" />
            <Array as="points">
              <mxPoint x="430" y="293" />
              <mxPoint x="430" y="155" />
            </Array>
          </mxGeometry>
        </mxCell>
        <mxCell id="SEoUSyoVG0V_tfhpsUfe-65" value="In&amp;nbsp;" style="text;html=1;align=center;verticalAlign=middle;resizable=0;points=[];autosize=1;strokeColor=none;fillColor=none;fontSize=9;" parent="1" vertex="1">
          <mxGeometry x="426" y="202" width="30" height="20" as="geometry" />
        </mxCell>
        <mxCell id="SEoUSyoVG0V_tfhpsUfe-66" value="1" style="text;html=1;align=center;verticalAlign=middle;resizable=0;points=[];autosize=1;strokeColor=none;fillColor=none;fontSize=7;" parent="1" vertex="1">
          <mxGeometry x="360" y="140" width="30" height="20" as="geometry" />
        </mxCell>
        <mxCell id="SEoUSyoVG0V_tfhpsUfe-67" value="0..*" style="text;html=1;align=center;verticalAlign=middle;resizable=0;points=[];autosize=1;strokeColor=none;fillColor=none;fontSize=7;" parent="1" vertex="1">
          <mxGeometry x="443" y="277" width="30" height="20" as="geometry" />
        </mxCell>
        <mxCell id="SEoUSyoVG0V_tfhpsUfe-68" value="" style="endArrow=none;html=1;rounded=0;entryX=0.996;entryY=0.519;entryDx=0;entryDy=0;entryPerimeter=0;" parent="1" target="SEoUSyoVG0V_tfhpsUfe-12" edge="1">
          <mxGeometry width="50" height="50" relative="1" as="geometry">
            <mxPoint x="660" y="640" as="sourcePoint" />
            <mxPoint x="370" y="259" as="targetPoint" />
            <Array as="points">
              <mxPoint x="390" y="640" />
              <mxPoint x="390" y="260" />
            </Array>
          </mxGeometry>
        </mxCell>
        <mxCell id="SEoUSyoVG0V_tfhpsUfe-69" value="1" style="text;html=1;align=center;verticalAlign=middle;resizable=0;points=[];autosize=1;strokeColor=none;fillColor=none;fontSize=7;" parent="1" vertex="1">
          <mxGeometry x="360" y="242" width="30" height="20" as="geometry" />
        </mxCell>
        <mxCell id="SEoUSyoVG0V_tfhpsUfe-70" value="0..*" style="text;html=1;align=center;verticalAlign=middle;resizable=0;points=[];autosize=1;strokeColor=none;fillColor=none;fontSize=7;" parent="1" vertex="1">
          <mxGeometry x="635" y="623" width="30" height="20" as="geometry" />
        </mxCell>
        <mxCell id="SEoUSyoVG0V_tfhpsUfe-71" value="Xem" style="text;html=1;align=center;verticalAlign=middle;resizable=0;points=[];autosize=1;strokeColor=none;fillColor=none;fontSize=9;" parent="1" vertex="1">
          <mxGeometry x="390" y="620" width="40" height="20" as="geometry" />
        </mxCell>
      </root>
    </mxGraphModel>
  </diagram>
  <diagram name="Relational" id="d-_WZDDz99uRdKCETfGa">
    <mxGraphModel dx="1235" dy="731" grid="1" gridSize="10" guides="1" tooltips="1" connect="1" arrows="1" fold="1" page="1" pageScale="1" pageWidth="1169" pageHeight="827" math="0" shadow="0">
      <root>
        <mxCell id="0" />
        <mxCell id="1" parent="0" />
        <mxCell id="FsH_7km-Thbk5VWAwqLg-18" value="QuanTriHeThong" style="swimlane;fontStyle=1;align=center;verticalAlign=top;childLayout=stackLayout;horizontal=1;startSize=20;horizontalStack=0;resizeParent=1;resizeParentMax=0;resizeLast=0;collapsible=1;marginBottom=0;whiteSpace=wrap;html=1;fillColor=#d5e8d4;strokeColor=#000000;fontSize=8;" parent="1" vertex="1">
          <mxGeometry x="210" y="87" width="120" height="46" as="geometry" />
        </mxCell>
        <mxCell id="FsH_7km-Thbk5VWAwqLg-19" value="&lt;u&gt;ID - TaiKhoanQuanTriHeThong&lt;/u&gt;" style="text;strokeColor=none;fillColor=none;align=left;verticalAlign=top;spacingLeft=4;spacingRight=4;overflow=hidden;rotatable=0;points=[[0,0.5],[1,0.5]];portConstraint=eastwest;whiteSpace=wrap;html=1;fontSize=8;" parent="FsH_7km-Thbk5VWAwqLg-18" vertex="1">
          <mxGeometry y="20" width="120" height="26" as="geometry" />
        </mxCell>
        <mxCell id="FsH_7km-Thbk5VWAwqLg-26" value="TaiKhoan" style="swimlane;fontStyle=1;align=center;verticalAlign=top;childLayout=stackLayout;horizontal=1;startSize=20;horizontalStack=0;resizeParent=1;resizeParentMax=0;resizeLast=0;collapsible=1;marginBottom=0;whiteSpace=wrap;html=1;fillColor=#d5e8d4;strokeColor=#000000;fontSize=8;" parent="1" vertex="1">
          <mxGeometry x="500" y="80" width="120" height="60" as="geometry" />
        </mxCell>
        <mxCell id="FsH_7km-Thbk5VWAwqLg-27" value="&lt;u style=&quot;font-size: 8px;&quot;&gt;TenTaiKhoan&lt;/u&gt;&lt;br style=&quot;font-size: 8px;&quot;&gt;&lt;br&gt;MatKhau" style="text;strokeColor=none;fillColor=none;align=left;verticalAlign=top;spacingLeft=4;spacingRight=4;overflow=hidden;rotatable=0;points=[[0,0.5],[1,0.5]];portConstraint=eastwest;whiteSpace=wrap;html=1;fontSize=8;horizontal=1;" parent="FsH_7km-Thbk5VWAwqLg-26" vertex="1">
          <mxGeometry y="20" width="120" height="40" as="geometry" />
        </mxCell>
        <mxCell id="FsH_7km-Thbk5VWAwqLg-35" value="QuanTriVien" style="swimlane;fontStyle=1;align=center;verticalAlign=top;childLayout=stackLayout;horizontal=1;startSize=20;horizontalStack=0;resizeParent=1;resizeParentMax=0;resizeLast=0;collapsible=1;marginBottom=0;whiteSpace=wrap;html=1;fillColor=#d5e8d4;strokeColor=#000000;fontSize=8;" parent="1" vertex="1">
          <mxGeometry x="210" y="305" width="130" height="130" as="geometry" />
        </mxCell>
        <mxCell id="FsH_7km-Thbk5VWAwqLg-36" value="&lt;u&gt;MaQuanTriVien&lt;/u&gt;&lt;br style=&quot;border-color: var(--border-color);&quot;&gt;&lt;br style=&quot;border-color: var(--border-color);&quot;&gt;Ho&lt;br style=&quot;border-color: var(--border-color);&quot;&gt;&lt;br style=&quot;border-color: var(--border-color);&quot;&gt;Ten&lt;div style=&quot;border-color: var(--border-color);&quot;&gt;&lt;br style=&quot;border-color: var(--border-color);&quot;&gt;&lt;/div&gt;&lt;div style=&quot;border-color: var(--border-color);&quot;&gt;CCCD&lt;/div&gt;&lt;div style=&quot;border-color: var(--border-color);&quot;&gt;&lt;/div&gt;&lt;br style=&quot;border-color: var(--border-color);&quot;&gt;&lt;br style=&quot;border-color: var(--border-color);&quot;&gt;TaiKhoan&lt;u&gt;&lt;br&gt;&lt;/u&gt;" style="text;strokeColor=none;fillColor=none;align=left;verticalAlign=top;spacingLeft=4;spacingRight=4;overflow=hidden;rotatable=0;points=[[0,0.5],[1,0.5]];portConstraint=eastwest;whiteSpace=wrap;html=1;fontSize=8;" parent="FsH_7km-Thbk5VWAwqLg-35" vertex="1">
          <mxGeometry y="20" width="130" height="110" as="geometry" />
        </mxCell>
        <mxCell id="FsH_7km-Thbk5VWAwqLg-39" value="NhanVien" style="swimlane;fontStyle=1;align=center;verticalAlign=top;childLayout=stackLayout;horizontal=1;startSize=20;horizontalStack=0;resizeParent=1;resizeParentMax=0;resizeLast=0;collapsible=1;marginBottom=0;whiteSpace=wrap;html=1;fillColor=#d5e8d4;strokeColor=#000000;fontSize=8;" parent="1" vertex="1">
          <mxGeometry x="780" y="60" width="120" height="140" as="geometry" />
        </mxCell>
        <mxCell id="FsH_7km-Thbk5VWAwqLg-40" value="&lt;u&gt;MaNhanVien&lt;/u&gt;&lt;br&gt;&lt;br&gt;Ho&lt;br style=&quot;border-color: var(--border-color);&quot;&gt;&lt;br style=&quot;border-color: var(--border-color);&quot;&gt;Ten&lt;div style=&quot;border-color: var(--border-color);&quot;&gt;&lt;br style=&quot;border-color: var(--border-color);&quot;&gt;&lt;/div&gt;&lt;div style=&quot;border-color: var(--border-color);&quot;&gt;CCCD&lt;/div&gt;&lt;div style=&quot;border-color: var(--border-color);&quot;&gt;&lt;br&gt;&lt;/div&gt;Luong&lt;br&gt;&lt;br&gt;TaiKhoan" style="text;strokeColor=none;fillColor=none;align=left;verticalAlign=top;spacingLeft=4;spacingRight=4;overflow=hidden;rotatable=0;points=[[0,0.5],[1,0.5]];portConstraint=eastwest;whiteSpace=wrap;html=1;fontSize=8;" parent="FsH_7km-Thbk5VWAwqLg-39" vertex="1">
          <mxGeometry y="20" width="120" height="120" as="geometry" />
        </mxCell>
        <mxCell id="FsH_7km-Thbk5VWAwqLg-44" value="KhachHang" style="swimlane;fontStyle=1;align=center;verticalAlign=top;childLayout=stackLayout;horizontal=1;startSize=20;horizontalStack=0;resizeParent=1;resizeParentMax=0;resizeLast=0;collapsible=1;marginBottom=0;whiteSpace=wrap;html=1;fillColor=#d5e8d4;strokeColor=#000000;fontSize=8;" parent="1" vertex="1">
          <mxGeometry x="784.19" y="280" width="111.63" height="40" as="geometry" />
        </mxCell>
        <mxCell id="FsH_7km-Thbk5VWAwqLg-45" value="&lt;u&gt;MaKhachHang&lt;/u&gt;&lt;br&gt;&lt;div&gt;&lt;br/&gt;&lt;/div&gt;" style="text;strokeColor=none;fillColor=none;align=left;verticalAlign=top;spacingLeft=4;spacingRight=4;overflow=hidden;rotatable=0;points=[[0,0.5],[1,0.5]];portConstraint=eastwest;whiteSpace=wrap;html=1;fontSize=8;" parent="FsH_7km-Thbk5VWAwqLg-44" vertex="1">
          <mxGeometry y="20" width="111.63" height="20" as="geometry" />
        </mxCell>
        <mxCell id="FsH_7km-Thbk5VWAwqLg-48" value="Mon" style="swimlane;fontStyle=1;align=center;verticalAlign=top;childLayout=stackLayout;horizontal=1;startSize=20;horizontalStack=0;resizeParent=1;resizeParentMax=0;resizeLast=0;collapsible=1;marginBottom=0;whiteSpace=wrap;html=1;fillColor=#d5e8d4;strokeColor=#000000;fontSize=8;" parent="1" vertex="1">
          <mxGeometry x="500" y="630" width="111.63" height="80" as="geometry" />
        </mxCell>
        <mxCell id="FsH_7km-Thbk5VWAwqLg-49" value="&lt;u&gt;MaMon&lt;/u&gt;&lt;br&gt;&lt;br&gt;LoaiMon&lt;br&gt;&lt;br&gt;DonGia" style="text;strokeColor=none;fillColor=none;align=left;verticalAlign=top;spacingLeft=4;spacingRight=4;overflow=hidden;rotatable=0;points=[[0,0.5],[1,0.5]];portConstraint=eastwest;whiteSpace=wrap;html=1;fontSize=8;" parent="FsH_7km-Thbk5VWAwqLg-48" vertex="1">
          <mxGeometry y="20" width="111.63" height="60" as="geometry" />
        </mxCell>
        <mxCell id="FsH_7km-Thbk5VWAwqLg-56" value="HoaDon" style="swimlane;fontStyle=1;align=center;verticalAlign=top;childLayout=stackLayout;horizontal=1;startSize=20;horizontalStack=0;resizeParent=1;resizeParentMax=0;resizeLast=0;collapsible=1;marginBottom=0;whiteSpace=wrap;html=1;fillColor=#d5e8d4;strokeColor=#000000;fontSize=8;" parent="1" vertex="1">
          <mxGeometry x="500" y="200" width="111.63" height="310" as="geometry" />
        </mxCell>
        <mxCell id="FsH_7km-Thbk5VWAwqLg-57" value="&lt;u&gt;MaHoaDon&lt;/u&gt;&lt;br&gt;&lt;br&gt;&lt;div style=&quot;border-color: var(--border-color);&quot;&gt;TenQuan&lt;/div&gt;&lt;div style=&quot;border-color: var(--border-color);&quot;&gt;&lt;br style=&quot;border-color: var(--border-color);&quot;&gt;&lt;/div&gt;&lt;div style=&quot;border-color: var(--border-color);&quot;&gt;DiaChiQuan&lt;/div&gt;&lt;br&gt;Ngay&lt;br&gt;&lt;br&gt;GioVao&lt;br&gt;&lt;br&gt;GioRa&lt;br&gt;&lt;br&gt;MaBan&lt;br&gt;&lt;br&gt;MaKhach&lt;br&gt;&lt;br&gt;MaNhanVien&lt;br&gt;&lt;br&gt;MaMon&lt;br&gt;&lt;br&gt;SoLuong&lt;br&gt;&lt;div&gt;&lt;br&gt;&lt;/div&gt;&lt;div&gt;ThanhTien&lt;/div&gt;&lt;div&gt;&lt;br&gt;&lt;/div&gt;&lt;div&gt;VAT&lt;/div&gt;&lt;div&gt;&lt;br&gt;&lt;/div&gt;&lt;div&gt;TongThanhTien&lt;/div&gt;&lt;div&gt;&lt;br&gt;&lt;/div&gt;&lt;div&gt;TienKhach&lt;/div&gt;&lt;div&gt;&lt;br&gt;&lt;/div&gt;&lt;div&gt;TienThua&lt;/div&gt;" style="text;strokeColor=none;fillColor=none;align=left;verticalAlign=top;spacingLeft=4;spacingRight=4;overflow=hidden;rotatable=0;points=[[0,0.5],[1,0.5]];portConstraint=eastwest;whiteSpace=wrap;html=1;fontSize=8;" parent="FsH_7km-Thbk5VWAwqLg-56" vertex="1">
          <mxGeometry y="20" width="111.63" height="290" as="geometry" />
        </mxCell>
        <mxCell id="FsH_7km-Thbk5VWAwqLg-64" value="Ban" style="swimlane;fontStyle=1;align=center;verticalAlign=top;childLayout=stackLayout;horizontal=1;startSize=20;horizontalStack=0;resizeParent=1;resizeParentMax=0;resizeLast=0;collapsible=1;marginBottom=0;whiteSpace=wrap;html=1;fillColor=#d5e8d4;strokeColor=#000000;fontSize=8;" parent="1" vertex="1">
          <mxGeometry x="290" y="540" width="111.63" height="80" as="geometry">
            <mxRectangle x="530" width="60" height="20" as="alternateBounds" />
          </mxGeometry>
        </mxCell>
        <mxCell id="FsH_7km-Thbk5VWAwqLg-65" value="&lt;u&gt;MaBan&lt;br&gt;&lt;/u&gt;&lt;div&gt;&lt;br&gt;&lt;/div&gt;&lt;div&gt;ViTri&lt;/div&gt;&lt;div&gt;&lt;br&gt;&lt;/div&gt;&lt;div&gt;TrangThai&lt;/div&gt;" style="text;strokeColor=none;fillColor=none;align=left;verticalAlign=top;spacingLeft=4;spacingRight=4;overflow=hidden;rotatable=0;points=[[0,0.5],[1,0.5]];portConstraint=eastwest;whiteSpace=wrap;html=1;fontSize=8;" parent="FsH_7km-Thbk5VWAwqLg-64" vertex="1">
          <mxGeometry y="20" width="111.63" height="60" as="geometry" />
        </mxCell>
        <mxCell id="FsH_7km-Thbk5VWAwqLg-77" value="DonHang" style="swimlane;fontStyle=1;align=center;verticalAlign=top;childLayout=stackLayout;horizontal=1;startSize=20;horizontalStack=0;resizeParent=1;resizeParentMax=0;resizeLast=0;collapsible=1;marginBottom=0;whiteSpace=wrap;html=1;fillColor=#d5e8d4;strokeColor=#000000;fontSize=8;" parent="1" vertex="1">
          <mxGeometry x="784.18" y="440" width="111.63" height="180" as="geometry" />
        </mxCell>
        <mxCell id="FsH_7km-Thbk5VWAwqLg-78" value="&lt;u&gt;MaDonHang&lt;/u&gt;&lt;br&gt;&lt;br&gt;MaHoaDon&lt;br&gt;&lt;br&gt;MaBan&lt;br&gt;&lt;br&gt;MaKhachHang&lt;br&gt;&lt;br&gt;MaNhanVien&lt;br&gt;&lt;br&gt;MaMon&lt;br style=&quot;border-color: var(--border-color);&quot;&gt;&lt;br&gt;SoLuong&lt;br&gt;&lt;br&gt;DoanhThu&lt;div&gt;&lt;br/&gt;&lt;/div&gt;" style="text;strokeColor=none;fillColor=none;align=left;verticalAlign=top;spacingLeft=4;spacingRight=4;overflow=hidden;rotatable=0;points=[[0,0.5],[1,0.5]];portConstraint=eastwest;whiteSpace=wrap;html=1;fontSize=8;" parent="FsH_7km-Thbk5VWAwqLg-77" vertex="1">
          <mxGeometry y="20" width="111.63" height="160" as="geometry" />
        </mxCell>
        <mxCell id="ZXcEk41wfmSLOT055PL0-2" value="ThongTinNV" style="swimlane;fontStyle=1;align=center;verticalAlign=top;childLayout=stackLayout;horizontal=1;startSize=20;horizontalStack=0;resizeParent=1;resizeParentMax=0;resizeLast=0;collapsible=1;marginBottom=0;whiteSpace=wrap;html=1;fillColor=#d5e8d4;strokeColor=#000000;fontSize=8;" vertex="1" parent="1">
          <mxGeometry x="980" y="20" width="120" height="100" as="geometry" />
        </mxCell>
        <mxCell id="ZXcEk41wfmSLOT055PL0-3" value="&lt;u style=&quot;border-color: var(--border-color);&quot;&gt;MaNhanVien&lt;/u&gt;&lt;br style=&quot;border-color: var(--border-color);&quot;&gt;&lt;br&gt;&lt;div style=&quot;border-color: var(--border-color);&quot;&gt;SoDienThoai&lt;/div&gt;&lt;div style=&quot;border-color: var(--border-color);&quot;&gt;&lt;br style=&quot;border-color: var(--border-color);&quot;&gt;&lt;/div&gt;&lt;div style=&quot;border-color: var(--border-color);&quot;&gt;DiaChi&lt;/div&gt;&lt;div style=&quot;border-color: var(--border-color);&quot;&gt;&lt;br style=&quot;border-color: var(--border-color);&quot;&gt;&lt;/div&gt;&lt;div style=&quot;border-color: var(--border-color);&quot;&gt;Anh&lt;/div&gt;" style="text;strokeColor=none;fillColor=none;align=left;verticalAlign=top;spacingLeft=4;spacingRight=4;overflow=hidden;rotatable=0;points=[[0,0.5],[1,0.5]];portConstraint=eastwest;whiteSpace=wrap;html=1;fontSize=8;" vertex="1" parent="ZXcEk41wfmSLOT055PL0-2">
          <mxGeometry y="20" width="120" height="80" as="geometry" />
        </mxCell>
        <mxCell id="ZXcEk41wfmSLOT055PL0-4" value="ThongTinQTV" style="swimlane;fontStyle=1;align=center;verticalAlign=top;childLayout=stackLayout;horizontal=1;startSize=20;horizontalStack=0;resizeParent=1;resizeParentMax=0;resizeLast=0;collapsible=1;marginBottom=0;whiteSpace=wrap;html=1;fillColor=#d5e8d4;strokeColor=#000000;fontSize=8;" vertex="1" parent="1">
          <mxGeometry x="20" y="280" width="120" height="100" as="geometry" />
        </mxCell>
        <mxCell id="ZXcEk41wfmSLOT055PL0-5" value="&lt;u style=&quot;border-color: var(--border-color);&quot;&gt;MaQuanTriVien&lt;/u&gt;&lt;br style=&quot;border-color: var(--border-color);&quot;&gt;&lt;br&gt;&lt;div style=&quot;border-color: var(--border-color);&quot;&gt;SoDienThoai&lt;/div&gt;&lt;div style=&quot;border-color: var(--border-color);&quot;&gt;&lt;br style=&quot;border-color: var(--border-color);&quot;&gt;&lt;/div&gt;&lt;div style=&quot;border-color: var(--border-color);&quot;&gt;DiaChi&lt;/div&gt;&lt;div style=&quot;border-color: var(--border-color);&quot;&gt;&lt;br style=&quot;border-color: var(--border-color);&quot;&gt;&lt;/div&gt;&lt;div style=&quot;border-color: var(--border-color);&quot;&gt;Anh&lt;/div&gt;" style="text;strokeColor=none;fillColor=none;align=left;verticalAlign=top;spacingLeft=4;spacingRight=4;overflow=hidden;rotatable=0;points=[[0,0.5],[1,0.5]];portConstraint=eastwest;whiteSpace=wrap;html=1;fontSize=8;" vertex="1" parent="ZXcEk41wfmSLOT055PL0-4">
          <mxGeometry y="20" width="120" height="80" as="geometry" />
        </mxCell>
      </root>
    </mxGraphModel>
  </diagram>
</mxfile>
